<svg width="184" height="102" viewBox="0 0 184 102" fill="none" xmlns="http://www.w3.org/2000/svg">
<path d="M18.6591 19.5994C24.2322 16.3817 31.1986 20.4038 31.1986 26.8391C31.1986 33.2743 24.2322 37.2964 18.6591 34.0788C13.086 30.8611 13.086 22.817 18.6591 19.5994Z" fill="#46A6FF"/>
<path d="M95.9188 80.9748C96.4005 78.1406 99.7696 76.8907 101.983 78.7249C104.197 80.5592 103.595 84.1019 100.899 85.1018C98.2041 86.1017 95.4371 83.8089 95.9188 80.9748Z" fill="#AE46FF"/>
<rect x="82" y="8.02513" width="11.3492" height="11.3492" rx="5.67462" transform="rotate(-45 82 8.02513)" fill="#35BD32"/>
<rect x="53" y="93.0251" width="11.3492" height="11.3492" rx="5.67462" transform="rotate(-45 53 93.0251)" fill="#ED2727"/>
<rect x="160" y="36.6986" width="16.5443" height="16.5443" rx="8.27215" transform="rotate(-45 160 36.6986)" fill="#F2E145"/>
</svg>
