<svg width="78" height="78" viewBox="0 0 78 78" fill="none" xmlns="http://www.w3.org/2000/svg">
<path d="M76.4766 59.814C77.3178 59.814 78 59.1318 78 58.2906V55.6266C77.9999 51.5604 75.6577 48.0329 72.253 46.3156C74.0243 44.816 75.1518 42.5783 75.1518 40.0811V38.1823C75.1518 33.678 71.4872 30.0134 66.9828 30.0134C62.4785 30.0134 58.8139 33.678 58.8139 38.1823V40.0811C58.8139 42.2519 59.6665 44.2259 61.0524 45.6904C58.3741 46.2879 55.8415 47.4281 53.5792 49.0784L39.7842 59.1422C39.499 59.3503 39.2376 59.5841 38.9999 59.8381C38.7623 59.5841 38.5007 59.3503 38.2157 59.1422L24.4207 49.0784C22.1584 47.4281 19.6258 46.2879 16.9474 45.6904C18.3333 44.2259 19.1861 42.2519 19.1861 40.0811V38.1823C19.1861 33.678 15.5215 30.0134 11.0172 30.0134C6.51284 30.0134 2.84821 33.678 2.84821 38.1823V40.0811C2.84821 42.5783 3.97571 44.816 5.747 46.3156C2.34213 48.0329 0 51.5604 0 55.6267V76.4732C0 77.3145 0.682194 77.9967 1.52343 77.9967H20.5108C21.352 77.9967 22.0342 77.3145 22.0342 76.4732V62.4846L32.0019 68.4946C33.761 69.5552 35.8787 69.5852 37.6672 68.5753C38.1724 68.29 38.6175 67.9374 38.9999 67.535C39.3823 67.9376 39.8275 68.2901 40.3326 68.5753C41.203 69.0669 42.1513 69.312 43.0981 69.312C44.0972 69.312 45.0949 69.039 45.9978 68.4946L55.9657 62.4846V76.4732C55.9657 77.3145 56.6479 77.9967 57.4891 77.9967H76.4764C77.3177 77.9967 77.9999 77.3145 77.9999 76.4732V70.9691C77.9999 70.1278 77.3177 69.4456 76.4764 69.4456C75.6352 69.4456 74.953 70.1278 74.953 70.9691V74.9498H59.0125V60.8908C59.0125 60.8119 59.0046 60.7349 58.9932 60.6592L60.6492 59.6608C61.3697 59.2263 61.6016 58.2901 61.1671 57.5696C60.7325 56.849 59.7959 56.6166 59.0759 57.0516L44.4246 65.8854C43.6191 66.371 42.6495 66.3848 41.8309 65.9222C41.0122 65.4599 40.5234 64.6224 40.5234 63.682C40.5234 62.8632 40.9184 62.0861 41.58 61.6035L55.375 51.5396C58.3252 49.3873 61.8147 48.2498 65.4667 48.2498H67.5762C71.6438 48.2498 74.9531 51.559 74.9531 55.6266V58.2906C74.9531 59.1318 75.6353 59.814 76.4766 59.814ZM5.89493 38.1823C5.89493 35.358 8.19273 33.0602 11.017 33.0602C13.8413 33.0602 16.1391 35.358 16.1391 38.1823V40.0811C16.1391 42.9054 13.8413 45.2032 11.017 45.2032C8.19273 45.2032 5.89493 42.9054 5.89493 40.0811V38.1823ZM36.1689 65.9222C35.3499 66.3846 34.3804 66.3707 33.5751 65.8854L18.924 57.0516C18.2035 56.6168 17.2671 56.8491 16.8327 57.5696C16.3983 58.29 16.6301 59.2263 17.3507 59.6608L19.0048 60.6582C18.9933 60.734 18.9872 60.8117 18.9872 60.8908V74.9498H3.04687V55.6267C3.04687 51.5592 6.35623 48.2499 10.4238 48.2499H12.5333C16.1853 48.2499 19.6749 49.3875 22.625 51.5398L36.42 61.6036C37.0816 62.0862 37.4766 62.8633 37.4766 63.6822C37.4765 64.6224 36.9876 65.4599 36.1689 65.9222ZM72.1049 40.0811C72.1049 42.9054 69.8071 45.2032 66.9828 45.2032C64.1585 45.2032 61.8607 42.9054 61.8607 40.0811V38.1823C61.8607 35.358 64.1585 33.0602 66.9828 33.0602C69.8071 33.0602 72.1049 35.358 72.1049 38.1823V40.0811Z" fill="#FE7119"/>
<path d="M77.5535 63.3657C77.2703 63.0825 76.8772 62.9209 76.4766 62.9209C76.0759 62.9209 75.6829 63.0825 75.3995 63.3657C75.1161 63.6506 74.9531 64.0421 74.9531 64.4428C74.9531 64.845 75.116 65.2365 75.3995 65.5214C75.6829 65.8047 76.0759 65.9677 76.4766 65.9677C76.8772 65.9677 77.2703 65.8049 77.5535 65.5214C77.8368 65.2365 78 64.845 78 64.4428C78 64.0421 77.837 63.6491 77.5535 63.3657Z" fill="#FE7119"/>
<path d="M62.9248 0.00335693H57.8974C57.0562 0.00335693 56.374 0.685399 56.374 1.52679C56.374 2.36818 57.0562 3.05023 57.8974 3.05023H59.2467L41.4439 20.8532L29.7937 9.20307C29.5079 8.91743 29.1205 8.75686 28.7165 8.75686C28.3125 8.75686 27.9251 8.91743 27.6393 9.20307L16.7836 20.0588C16.1887 20.6538 16.1887 21.6183 16.7836 22.2134C17.3786 22.8084 18.343 22.8083 18.9382 22.2134L28.7166 12.4347L40.3668 24.0849C40.6643 24.3824 41.0542 24.5311 41.444 24.5311C41.8339 24.5311 42.2237 24.3824 42.5212 24.0849L61.4013 5.20482V6.55413C61.4013 7.39552 62.0835 8.07756 62.9248 8.07756C63.766 8.07756 64.4482 7.39552 64.4482 6.55413V1.52679C64.4482 0.685399 63.766 0.00335693 62.9248 0.00335693Z" fill="#FE7119"/>
<path d="M15.0925 23.9043C14.8093 23.621 14.4163 23.458 14.0156 23.458C13.615 23.458 13.2219 23.621 12.9386 23.9043C12.6552 24.1877 12.4922 24.5807 12.4922 24.9814C12.4922 25.3821 12.655 25.7751 12.9386 26.0585C13.2221 26.3418 13.615 26.5048 14.0156 26.5048C14.4163 26.5048 14.8093 26.3418 15.0925 26.0585C15.3759 25.7751 15.5391 25.3821 15.5391 24.9814C15.5391 24.5792 15.376 24.1877 15.0925 23.9043Z" fill="#FE7119"/>
</svg>
