<svg width="21" height="21" viewBox="0 0 21 21" fill="none" xmlns="http://www.w3.org/2000/svg">
<g clip-path="url(#clip0)">
<path d="M19.4855 0H1.51453C0.67804 0 0 0.67804 0 1.51453V19.4855C0 20.322 0.67804 21 1.51453 21H11.2178V12.8789H8.49023V9.7002H11.2178V7.36086C11.2178 4.64806 12.8739 3.1715 15.2939 3.1715C16.4529 3.1715 17.4489 3.25786 17.7393 3.29647V6.13184H16.0706C14.7539 6.13184 14.499 6.75748 14.499 7.67569V9.7002H17.647L17.2368 12.8789H14.499V21H19.4855C20.322 21 21 20.322 21 19.4855V1.51453C21 0.67804 20.322 0 19.4855 0V0Z" fill="#464646"/>
</g>
<defs>
<clipPath id="clip0">
<rect width="21" height="21" fill="white"/>
</clipPath>
</defs>
</svg>
