<svg width="78" height="78" viewBox="0 0 78 78" fill="none" xmlns="http://www.w3.org/2000/svg">
<path d="M38.9999 73.6606C37.8895 73.6606 36.8189 73.2583 35.9846 72.5275C32.8336 69.7722 29.7956 67.183 27.1153 64.899L27.1017 64.8871C19.2435 58.1906 12.4576 52.4074 7.73619 46.7106C2.45832 40.3419 0 34.3035 0 27.7069C0 21.2978 2.19767 15.3849 6.18776 11.0568C10.2255 6.67754 15.7658 4.26562 21.7899 4.26562C26.2923 4.26562 30.4157 5.68909 34.0452 8.49614C35.8769 9.91306 37.5372 11.6472 38.9999 13.6699C40.4633 11.6472 42.123 9.91306 43.9552 8.49614C47.5847 5.68909 51.7081 4.26562 56.2106 4.26562C62.2341 4.26562 67.775 6.67754 71.8127 11.0568C75.8028 15.3849 77.9998 21.2978 77.9998 27.7069C77.9998 34.3035 75.5421 40.3419 70.2643 46.71C65.5428 52.4074 58.7576 58.19 50.9006 64.8859C48.2155 67.1735 45.1728 69.7669 42.0147 72.5287C41.1809 73.2583 40.1098 73.6606 38.9999 73.6606ZM21.7899 8.83475C17.0571 8.83475 12.7094 10.7236 9.54646 14.1537C6.33654 17.6356 4.56852 22.4487 4.56852 27.7069C4.56852 33.255 6.63051 38.2169 11.2538 43.7953C15.7223 49.1874 22.3689 54.8515 30.0646 61.41L30.0789 61.4219C32.7693 63.7148 35.8192 66.3142 38.9934 69.0897C42.1866 66.3088 45.2412 63.7053 47.937 61.4088C55.6321 54.8503 62.2781 49.1874 66.7467 43.7953C71.3693 38.2169 73.4313 33.255 73.4313 27.7069C73.4313 22.4487 71.6633 17.6356 68.4534 14.1537C65.2911 10.7236 60.9427 8.83475 56.2106 8.83475C52.7436 8.83475 49.5604 9.93686 46.7498 12.1101C44.2451 14.0478 42.5003 16.4972 41.4773 18.211C40.9512 19.0924 40.0253 19.6184 38.9999 19.6184C37.9746 19.6184 37.0486 19.0924 36.5226 18.211C35.5002 16.4972 33.7554 14.0478 31.25 12.1101C28.4394 9.93686 25.2563 8.83475 21.7899 8.83475Z" fill="#FE7119"/>
</svg>
