<svg width="21" height="21" viewBox="0 0 21 21" fill="none" xmlns="http://www.w3.org/2000/svg">
<g clip-path="url(#clip0)">
<path d="M10.5035 5.1084C7.52586 5.1084 5.11523 7.52165 5.11523 10.4966C5.11523 13.4743 7.52848 15.8849 10.5035 15.8849C13.4811 15.8849 15.8917 13.4716 15.8917 10.4966C15.8917 7.51902 13.4785 5.1084 10.5035 5.1084ZM10.5035 13.994C8.57061 13.994 7.00611 12.4286 7.00611 10.4966C7.00611 8.56465 8.57149 6.99927 10.5035 6.99927C12.4355 6.99927 14.0009 8.56465 14.0009 10.4966C14.0017 12.4286 12.4364 13.994 10.5035 13.994Z" fill="#464646"/>
<path d="M14.8292 0.0664516C12.8972 -0.0236734 8.11184 -0.0192984 6.17809 0.0664516C4.47884 0.146077 2.97996 0.556451 1.77159 1.76483C-0.247914 3.78433 0.0102106 6.50558 0.0102106 10.4965C0.0102106 14.581 -0.217289 17.2392 1.77159 19.2281C3.79896 21.2546 6.55959 20.9895 10.5032 20.9895C14.5492 20.9895 15.9457 20.9921 17.3763 20.4382C19.3215 19.6831 20.7897 17.9444 20.9332 14.8216C21.0242 12.8887 21.019 8.1042 20.9332 6.17045C20.76 2.48408 18.7816 0.248452 14.8292 0.0664516ZM17.8873 17.8919C16.5635 19.2158 14.7268 19.0977 10.4778 19.0977C6.10284 19.0977 4.34846 19.1625 3.06834 17.8788C1.59396 16.4114 1.86084 14.0551 1.86084 10.4825C1.86084 5.64808 1.36471 2.16645 6.21659 1.91795C7.33134 1.87858 7.65946 1.86545 10.4656 1.86545L10.505 1.8917C15.1678 1.8917 18.8262 1.40345 19.0458 6.25445C19.0957 7.36133 19.1071 7.69383 19.1071 10.4956C19.1062 14.8198 19.1885 16.5847 17.8873 17.8919Z" fill="#464646"/>
<path d="M16.1048 6.15448C16.8002 6.15448 17.364 5.59075 17.364 4.89535C17.364 4.19996 16.8002 3.63623 16.1048 3.63623C15.4094 3.63623 14.8457 4.19996 14.8457 4.89535C14.8457 5.59075 15.4094 6.15448 16.1048 6.15448Z" fill="#464646"/>
</g>
<defs>
<clipPath id="clip0">
<rect width="21" height="21" fill="white"/>
</clipPath>
</defs>
</svg>
