<svg width="84" height="32" viewBox="0 0 84 32" fill="none" xmlns="http://www.w3.org/2000/svg">
<path d="M12.5252 18.3184L12.6748 18.492H12.904H15.712H16.7735L16.0975 17.6736L8.74752 8.77503L15.6186 1.53622L16.42 0.691999H15.256H12.52H12.3087L12.1614 0.843525L3.9 9.34411V1.192V0.691999H3.4H1H0.5V1.192V17.992V18.492H1H3.4H3.9V17.992V13.8528L6.44751 11.2655L12.5252 18.3184ZM41.6169 17.992V18.492H42.1169H53.6129H54.1129V17.992V15.904V15.404H53.6129H45.0169V1.192V0.691999H44.5169H42.1169H41.6169V1.192V17.992ZM58.0269 17.992V18.492H58.5269H60.9269H61.4269V17.992V1.192V0.691999H60.9269H58.5269H58.0269V1.192V17.992ZM81.9646 18.492H82.9299L82.3729 17.7035L78.7517 12.577C79.7347 12.1231 80.5377 11.473 81.1197 10.6444C81.8166 9.65213 82.1766 8.43244 82.1766 7.048C82.1766 5.09399 81.4641 3.4824 80.1312 2.36836C78.8096 1.2637 76.9312 0.691999 74.6686 0.691999H68.1166H67.6166V1.192V17.992V18.492H68.1166H70.5166H71.0166V17.992V13.38H74.6686C74.9449 13.38 75.2192 13.3666 75.4774 13.3501L78.9394 18.2794L79.0887 18.492H79.3486H81.9646ZM27.3846 18.684C32.7554 18.684 36.7886 14.8292 36.7886 9.592C36.7886 4.35478 32.7554 0.5 27.3846 0.5C21.9668 0.5 17.9326 4.37794 17.9326 9.592C17.9326 14.8061 21.9668 18.684 27.3846 18.684ZM27.3846 15.548C23.8854 15.548 21.3326 13.0286 21.3326 9.592C21.3326 6.15544 23.8854 3.636 27.3846 3.636C30.8334 3.636 33.3886 6.15303 33.3886 9.592C33.3886 13.031 30.8334 15.548 27.3846 15.548ZM74.5966 10.34H71.0166V3.78H74.5966C76.0677 3.78 77.1081 4.10872 77.7723 4.65124C78.4203 5.18057 78.7766 5.96767 78.7766 7.048C78.7766 8.12867 78.42 8.92274 77.7705 9.45821C77.1059 10.0061 76.0659 10.34 74.5966 10.34Z" stroke="#FE7119"/>
<path d="M27.6513 31.076C29.0512 31.076 29.7302 30.376 29.7302 29.557C29.7302 27.758 26.8813 28.381 26.8813 27.478C26.8813 27.17 27.1403 26.918 27.8123 26.918C28.2463 26.918 28.7153 27.044 29.1703 27.303L29.5203 26.442C29.0653 26.155 28.4353 26.008 27.8193 26.008C26.4263 26.008 25.7543 26.701 25.7543 27.534C25.7543 29.354 28.6033 28.724 28.6033 29.641C28.6033 29.942 28.3303 30.166 27.6583 30.166C27.0703 30.166 26.4543 29.956 26.0413 29.655L25.6562 30.509C26.0903 30.845 26.8742 31.076 27.6513 31.076Z" fill="#767676"/>
<path d="M31.9418 30.992H33.0758V27.016H34.6438V26.092H30.3738V27.016H31.9418V30.992Z" fill="#767676"/>
<path d="M37.8389 31.076C39.2319 31.076 40.0579 30.278 40.0579 28.836V26.092H38.9379V28.794C38.9379 29.725 38.5389 30.11 37.8459 30.11C37.1599 30.11 36.7539 29.725 36.7539 28.794V26.092H35.6199V28.836C35.6199 30.278 36.4459 31.076 37.8389 31.076Z" fill="#767676"/>
<path d="M41.6685 30.992H43.8945C45.4975 30.992 46.5965 30.026 46.5965 28.542C46.5965 27.058 45.4975 26.092 43.8945 26.092H41.6685V30.992ZM42.8025 30.061V27.023H43.8385C44.8115 27.023 45.4485 27.604 45.4485 28.542C45.4485 29.48 44.8115 30.061 43.8385 30.061H42.8025Z" fill="#767676"/>
<path d="M47.9417 30.992H49.0757V26.092H47.9417V30.992Z" fill="#767676"/>
<path d="M53.1016 31.076C54.6416 31.076 55.7826 30.005 55.7826 28.542C55.7826 27.079 54.6416 26.008 53.1016 26.008C51.5546 26.008 50.4206 27.086 50.4206 28.542C50.4206 29.998 51.5546 31.076 53.1016 31.076ZM53.1016 30.11C52.2266 30.11 51.5686 29.473 51.5686 28.542C51.5686 27.611 52.2266 26.974 53.1016 26.974C53.9766 26.974 54.6346 27.611 54.6346 28.542C54.6346 29.473 53.9766 30.11 53.1016 30.11Z" fill="#767676"/>
</svg>
