<svg width="78" height="78" viewBox="0 0 78 78" fill="none" xmlns="http://www.w3.org/2000/svg">
<path d="M78 52.7871C78 41.4179 70.3394 31.4846 59.5367 28.4913C58.8577 12.666 45.7728 0 29.7832 0C13.3604 0 0 13.3604 0 29.7832C0 35.1355 1.42465 40.3467 4.12994 44.9218L0.109497 59.4563L14.6446 55.4365C18.8502 57.9234 23.5942 59.3242 28.4907 59.5355C31.4834 70.3388 41.4173 78 52.7871 78C57.3253 78 61.7385 76.7914 65.6161 74.4949L77.8899 77.8899L74.4949 65.6161C76.7914 61.7385 78 57.3253 78 52.7871ZM15.3659 50.4948L6.66444 52.902L9.07159 44.2005L8.52292 43.3424C5.93724 39.297 4.57031 34.6082 4.57031 29.7832C4.57031 15.8806 15.8806 4.57031 29.7832 4.57031C43.6858 4.57031 54.9961 15.8806 54.9961 29.7832C54.9961 43.6858 43.6858 54.9961 29.7832 54.9961C24.9582 54.9961 20.2701 53.6292 16.224 51.0435L15.3659 50.4948ZM71.3356 71.3356L64.8788 69.5491L64.0165 70.1103C60.6739 72.2818 56.7903 73.4297 52.7871 73.4297C43.8512 73.4297 35.9989 67.6519 33.2169 59.3671C46.9005 57.7895 57.7895 46.9005 59.3676 33.2163C67.6519 35.9989 73.4297 43.8512 73.4297 52.7871C73.4297 56.7903 72.2818 60.6739 70.1103 64.0165L69.5491 64.8788L71.3356 71.3356Z" fill="#FE7119"/>
<path d="M27.498 41.2852H32.0684V45.8555H27.498V41.2852Z" fill="#FE7119"/>
<path d="M34.3535 22.8516C34.3535 24.1495 33.8251 25.3474 32.8658 26.2251L27.498 31.1382V36.7148H32.0684V33.1508L35.9513 29.5969C37.8402 27.8682 38.9238 25.4099 38.9238 22.8516C38.9238 17.8111 34.8236 13.7109 29.7832 13.7109C24.7428 13.7109 20.6426 17.8111 20.6426 22.8516H25.2129C25.2129 20.3313 27.263 18.2812 29.7832 18.2812C32.3034 18.2812 34.3535 20.3313 34.3535 22.8516Z" fill="#FE7119"/>
</svg>
